<svg id="Grupo_225" data-name="Grupo 225" xmlns="http://www.w3.org/2000/svg" xmlns:xlink="http://www.w3.org/1999/xlink" width="111.701" height="245.71" viewBox="0 0 111.701 245.71">
  <defs>
    <clipPath id="clip-path">
      <rect id="Retângulo_142" data-name="Retângulo 142" width="111.701" height="245.71" fill="#62c1c9"/>
    </clipPath>
  </defs>
  <g id="Grupo_224" data-name="Grupo 224" transform="translate(0 0)" clip-path="url(#clip-path)">
    <path id="Caminho_211" data-name="Caminho 211" d="M88.665,0H23.035A23.061,23.061,0,0,0,0,23.031v81.391a23.061,23.061,0,0,0,23.035,23.035H37.422a13.837,13.837,0,0,1,13.821,13.821v30.97a13.821,13.821,0,0,0,27.642,0V150.493a4.607,4.607,0,0,1,9.214,0v37.062H83.646a4.607,4.607,0,0,0-.031,9.214A4.544,4.544,0,0,1,88.1,201.3v3.456a4.607,4.607,0,0,0,9.214,0V201.3a4.544,4.544,0,0,1,4.485-4.53,4.607,4.607,0,0,0-.031-9.214H97.314V150.493a13.821,13.821,0,0,0-27.642,0v21.756a4.607,4.607,0,0,1-9.214,0v-30.97a13.837,13.837,0,0,1,13.821-13.821H88.665A23.061,23.061,0,0,0,111.7,104.423V23.031A23.061,23.061,0,0,0,88.665,0M23.035,9.21h65.63a13.837,13.837,0,0,1,13.821,13.821v.614h-29.5a4.607,4.607,0,1,0,0,9.214h29.5V47.3h-29.5a4.607,4.607,0,1,0,0,9.214h29.5V70.945H9.214V23.031A13.837,13.837,0,0,1,23.035,9.21M55.85,127.472l-.011-.014h.022l-.011.014m32.815-9.229H23.035A13.837,13.837,0,0,1,9.214,104.423V80.159h93.272v24.264a13.837,13.837,0,0,1-13.821,13.821" transform="translate(0 0.004)" fill="#62c1c9"/>
    <path id="Caminho_212" data-name="Caminho 212" d="M441.89,1183.33a13.821,13.821,0,1,0,13.821,13.821,13.837,13.837,0,0,0-13.821-13.821m0,18.428a4.607,4.607,0,1,1,4.607-4.607,4.613,4.613,0,0,1-4.607,4.607" transform="translate(-349.183 -965.263)" fill="#62c1c9"/>
  </g>
</svg>
