<svg xmlns="http://www.w3.org/2000/svg" xmlns:xlink="http://www.w3.org/1999/xlink" width="61.355" height="115" viewBox="0 0 61.355 115">
  <defs>
    <clipPath id="clip-path">
      <rect id="Retângulo_1387" data-name="Retângulo 1387" width="61.355" height="115" transform="translate(0 0)" fill="#fff"/>
    </clipPath>
  </defs>
  <g id="Grupo_1280" data-name="Grupo 1280" transform="translate(0 -0.004)">
    <g id="Grupo_1279" data-name="Grupo 1279" transform="translate(0 0.004)" clip-path="url(#clip-path)">
      <path id="Caminho_7927" data-name="Caminho 7927" d="M48.7,0H12.653A12.653,12.653,0,0,0,0,12.657V57.363A12.653,12.653,0,0,0,12.653,70.016h7.9a7.592,7.592,0,0,1,7.592,7.592V94.484a7.7,7.7,0,0,0,7.724,7.725,7.6,7.6,0,0,0,7.459-7.591V82.742a2.579,2.579,0,0,1,2.4-2.6,2.533,2.533,0,0,1,2.658,2.527v18.67a1.687,1.687,0,0,1-1.687,1.687h-.685a2.579,2.579,0,0,0-2.6,2.488,2.531,2.531,0,0,0,2.471,2.572,2.516,2.516,0,0,1,2.506,2.489V112.4A2.578,2.578,0,0,0,50.8,115a2.531,2.531,0,0,0,2.653-2.528v-1.9a2.516,2.516,0,0,1,2.506-2.489,2.531,2.531,0,0,0,2.471-2.572,2.579,2.579,0,0,0-2.6-2.488h-.685a1.687,1.687,0,0,1-1.687-1.687V82.8a7.7,7.7,0,0,0-7.724-7.725,7.6,7.6,0,0,0-7.46,7.591V94.545a2.579,2.579,0,0,1-2.4,2.6,2.533,2.533,0,0,1-2.658-2.527V77.608A7.592,7.592,0,0,1,40.8,70.016h7.9A12.653,12.653,0,0,0,61.355,57.363V12.657A12.653,12.653,0,0,0,48.7,0M56.294,24.3a1.687,1.687,0,0,1-1.687,1.687H40.164a2.578,2.578,0,0,0-2.6,2.408,2.531,2.531,0,0,0,2.528,2.653H54.606a1.687,1.687,0,0,1,1.687,1.687v4.555a1.687,1.687,0,0,1-1.687,1.687H6.748a1.687,1.687,0,0,1-1.687-1.687V12.657a7.592,7.592,0,0,1,7.592-7.592H48.7a7.584,7.584,0,0,1,7.465,6.2c.036.2.062.393.087.589a1.014,1.014,0,0,1-.072.568.936.936,0,0,1-.41.406,1.6,1.6,0,0,1-.714.17c-.254.007-.51-.006-.765-.006H40.164a2.578,2.578,0,0,0-2.6,2.408,2.531,2.531,0,0,0,2.528,2.653H54.606a1.687,1.687,0,0,1,1.687,1.687Z" transform="translate(0 -0.004)" fill="#fff"/>
    </g>
  </g>
</svg>
