<svg id="Grupo_1290" data-name="Grupo 1290" xmlns="http://www.w3.org/2000/svg" xmlns:xlink="http://www.w3.org/1999/xlink" width="31" height="27.737" viewBox="0 0 31 27.737">
  <defs>
    <clipPath id="clip-path">
      <rect id="Retângulo_1408" data-name="Retângulo 1408" width="31" height="27.737" fill="#fff"/>
    </clipPath>
  </defs>
  <g id="Grupo_1289" data-name="Grupo 1289" clip-path="url(#clip-path)">
    <path id="Caminho_7940" data-name="Caminho 7940" d="M16.69,24.444H1.51V8.8H24.031v4.748a.755.755,0,0,0,1.51,0V3.691a.755.755,0,0,0-.755-.755H21.367V1.167a1.167,1.167,0,0,0-2.333,0v1.77h-5.1V1.167a1.167,1.167,0,1,0-2.333,0v1.77h-5.1V1.167a1.167,1.167,0,0,0-2.333,0v1.77H.755A.755.755,0,0,0,0,3.691V25.2a.755.755,0,0,0,.755.755H16.69a.755.755,0,1,0,0-1.51m-15.18-20H4.174v.645a1.167,1.167,0,0,0,2.333,0V4.446h5.1v.645a1.167,1.167,0,1,0,2.333,0V4.446h5.1v.645a1.167,1.167,0,0,0,2.333,0V4.446h2.664V7.291H1.51Z" fill="#fff"/>
    <rect id="Retângulo_1403" data-name="Retângulo 1403" width="3.104" height="3.104" rx="1.552" transform="translate(8.851 10.539)" fill="#fff"/>
    <rect id="Retângulo_1404" data-name="Retângulo 1404" width="3.104" height="3.104" rx="1.552" transform="translate(13.585 10.539)" fill="#fff"/>
    <path id="Caminho_7941" data-name="Caminho 7941" d="M267.857,156.68h1.305a.9.9,0,0,0,.9-.9v-1.305a.9.9,0,0,0-.9-.9h-1.305a.9.9,0,0,0-.9.9v1.305a.9.9,0,0,0,.9.9" transform="translate(-248.638 -143.037)" fill="#fff"/>
    <path id="Retângulo_1405" data-name="Retângulo 1405" d="M1.552,0h0A1.552,1.552,0,0,1,3.1,1.552v0A1.552,1.552,0,0,1,1.552,3.1h0A1.552,1.552,0,0,1,0,1.552v0A1.552,1.552,0,0,1,1.552,0Z" transform="translate(4.117 15.07)" fill="#fff"/>
    <rect id="Retângulo_1406" data-name="Retângulo 1406" width="3.104" height="3.104" rx="1.552" transform="translate(8.851 15.07)" fill="#fff"/>
    <rect id="Retângulo_1407" data-name="Retângulo 1407" width="3.104" height="3.104" rx="1.552" transform="translate(13.585 15.07)" fill="#fff"/>
    <path id="Caminho_7942" data-name="Caminho 7942" d="M62.192,285.631H60.886a.9.9,0,0,0-.9.9v1.305a.9.9,0,0,0,.9.9h1.305a.9.9,0,0,0,.9-.9v-1.305a.9.9,0,0,0-.9-.9" transform="translate(-55.87 -266.03)" fill="#fff"/>
    <path id="Caminho_7943" data-name="Caminho 7943" d="M131.182,285.631h-1.305a.9.9,0,0,0-.9.9v1.305a.9.9,0,0,0,.9.9h1.305a.9.9,0,0,0,.9-.9v-1.305a.9.9,0,0,0-.9-.9" transform="translate(-120.126 -266.03)" fill="#fff"/>
    <path id="Caminho_7944" data-name="Caminho 7944" d="M200.173,285.631h-1.305a.9.9,0,0,0-.9.9v1.305a.9.9,0,0,0,.9.9h1.305a.9.9,0,0,0,.9-.9v-1.305a.9.9,0,0,0-.9-.9" transform="translate(-184.383 -266.03)" fill="#fff"/>
    <path id="Caminho_7945" data-name="Caminho 7945" d="M276.839,223.081a6.214,6.214,0,1,0,6.214,6.214,6.221,6.221,0,0,0-6.214-6.214m0,10.919a4.7,4.7,0,1,1,4.7-4.7,4.71,4.71,0,0,1-4.7,4.7" transform="translate(-252.053 -207.772)" fill="#fff"/>
    <path id="Caminho_7946" data-name="Caminho 7946" d="M351.69,257.624v-3.03a.755.755,0,0,0-1.51,0v3.349a.755.755,0,0,0,.229.541l2.166,2.107a.755.755,0,1,0,1.053-1.082Z" transform="translate(-326.149 -236.419)" fill="#fff"/>
  </g>
</svg>
