<svg xmlns="http://www.w3.org/2000/svg" width="42.887" height="34.093" viewBox="0 0 42.887 34.093">
  <g id="Grupo_1293" data-name="Grupo 1293" transform="translate(-315.056 -2866)">
    <path id="Caminho_7955" data-name="Caminho 7955" d="M41.525,1029.864l-13.154-4.595a.54.54,0,1,0-.356,1.019l11.82,4.128-18.891,7.838-18.891-7.838,13.3-4.645a.54.54,0,0,0-.356-1.019L.361,1029.864a.54.54,0,0,0-.029,1.008l20.4,8.465a.539.539,0,0,0,.414,0l20.4-8.465a.54.54,0,0,0-.029-1.008" transform="translate(315.557 1860.215)" fill="#fff" stroke="#fff" stroke-width="1"/>
    <path id="Caminho_7956" data-name="Caminho 7956" d="M965.878,413.986h-.007a.54.54,0,0,0,.011,1.079h0c.028,0,2.8.028,4.144,1.7,1.312,1.631,1.33,5.2,1.33,5.236a.54.54,0,0,0,.536.539h0a.54.54,0,0,0,.539-.533c.014-1.015.264-3.917,1.245-5.138a5,5,0,0,1,2.619-1.567,7.121,7.121,0,0,1,1.609-.241.54.54,0,0,0,0-1.079c-.028,0-2.791-.02-4.167-1.732-.932-1.158-1.259-4.168-1.307-5.23a.54.54,0,0,0-.539-.516h-.01a.54.54,0,0,0-.529.536,15.684,15.684,0,0,1-.179,2.038,6.9,6.9,0,0,1-1.118,3.16c-1.378,1.714-4.149,1.743-4.176,1.743h-.005m5.023-1.066a6.149,6.149,0,0,0,1.018-2.151,5.993,5.993,0,0,0,.982,2.162,5.376,5.376,0,0,0,2.291,1.6,5.594,5.594,0,0,0-2.352,1.664,5.689,5.689,0,0,0-.947,2,6.211,6.211,0,0,0-1.025-2.1,5.279,5.279,0,0,0-2.246-1.568,5.4,5.4,0,0,0,2.279-1.6" transform="translate(-632.418 2467.306)" fill="#fff" stroke="#fff" stroke-width="1"/>
    <path id="Caminho_7957" data-name="Caminho 7957" d="M673.2,5.868h0a3.432,3.432,0,0,1,2.4,1.011,6.527,6.527,0,0,1,.784,3.242.54.54,0,0,0,.536.539h0a.54.54,0,0,0,.54-.533,6.776,6.776,0,0,1,.731-3.181,3.476,3.476,0,0,1,2.452-1.079h0a.54.54,0,0,0,0-1.08h0a3.443,3.443,0,0,1-2.416-1.03,7.588,7.588,0,0,1-.769-3.245.54.54,0,0,0-1.079.02,6.621,6.621,0,0,1-.763,3.218,3.448,3.448,0,0,1-2.42,1.038.54.54,0,0,0,0,1.08m3.274-1.455a3.422,3.422,0,0,0,.46-.83,3.232,3.232,0,0,0,.446.837,3.36,3.36,0,0,0,1.119.913,3.515,3.515,0,0,0-1.157.951,3.183,3.183,0,0,0-.423.761,3.543,3.543,0,0,0-.467-.829,3.3,3.3,0,0,0-1.092-.892,3.379,3.379,0,0,0,1.112-.912" transform="translate(-345.005 2866.504)" fill="#fff" stroke="#fff" stroke-width="1"/>
    <path id="Caminho_7958" data-name="Caminho 7958" d="M948.432,1268.8a1.783,1.783,0,1,0,1.782-1.782,1.785,1.785,0,0,0-1.782,1.782m2.486,0a.7.7,0,1,1-.7-.7.7.7,0,0,1,.7.7" transform="translate(-615.812 1622.283)" fill="#fff" stroke="#fff" stroke-width="1"/>
    <path id="Caminho_7959" data-name="Caminho 7959" d="M1364.284,29.507a1.572,1.572,0,1,0-1.572-1.572,1.574,1.574,0,0,0,1.572,1.572m0-2.064a.492.492,0,1,1-.492.492.493.493,0,0,1,.492-.492" transform="translate(-1022.638 2840.611)" fill="#fff" stroke="#fff" stroke-width="1"/>
    <path id="Caminho_7960" data-name="Caminho 7960" d="M448,739.484a2.327,2.327,0,1,0-2.327-2.327A2.335,2.335,0,0,0,448,739.484m0-3.575a1.248,1.248,0,1,1-1.248,1.248A1.249,1.249,0,0,1,448,735.91" transform="translate(-122.099 2144.891)" fill="#fff" stroke="#fff" stroke-width="1"/>
  </g>
</svg>
