<svg id="Grupo_1295" data-name="Grupo 1295" xmlns="http://www.w3.org/2000/svg" xmlns:xlink="http://www.w3.org/1999/xlink" width="15.5" height="33.524" viewBox="0 0 15.5 33.524">
  <defs>
    <clipPath id="clip-path">
      <rect id="Retângulo_1410" data-name="Retângulo 1410" width="15.5" height="33.524" fill="#fff"/>
    </clipPath>
  </defs>
  <g id="Grupo_1294" data-name="Grupo 1294" clip-path="url(#clip-path)">
    <path id="Caminho_7961" data-name="Caminho 7961" d="M296.028,83.749h-1.592a.578.578,0,0,1,0-1.156h1.592a.578.578,0,0,1,0,1.156" transform="translate(-281.106 -79.009)" fill="#fff"/>
    <path id="Caminho_7962" data-name="Caminho 7962" d="M296.028,147.012h-1.592a.578.578,0,0,1,0-1.156h1.592a.578.578,0,0,1,0,1.156" transform="translate(-281.106 -139.527)" fill="#fff"/>
    <path id="Caminho_7963" data-name="Caminho 7963" d="M296.028,210.282h-1.592a.578.578,0,0,1,0-1.156h1.592a.578.578,0,0,1,0,1.156" transform="translate(-281.106 -200.051)" fill="#fff"/>
    <path id="Caminho_7964" data-name="Caminho 7964" d="M296.028,273.551h-1.592a.578.578,0,0,1,0-1.156h1.592a.578.578,0,0,1,0,1.156" transform="translate(-281.106 -260.575)" fill="#fff"/>
    <path id="Caminho_7965" data-name="Caminho 7965" d="M296.028,336.821h-1.592a.578.578,0,0,1,0-1.156h1.592a.578.578,0,0,1,0,1.156" transform="translate(-281.106 -321.099)" fill="#fff"/>
    <path id="Caminho_7966" data-name="Caminho 7966" d="M296.028,400.091h-1.592a.578.578,0,0,1,0-1.156h1.592a.578.578,0,0,1,0,1.156" transform="translate(-281.106 -381.624)" fill="#fff"/>
    <path id="Caminho_7967" data-name="Caminho 7967" d="M11.582,19.352V3.948a3.945,3.945,0,1,0-7.89,0V19.34A7.641,7.641,0,0,0,6.755,33.472a7.105,7.105,0,0,0,.861.052,7.636,7.636,0,0,0,3.965-14.173m.37,11.369a6.484,6.484,0,1,1-7.41-10.537.587.587,0,0,0,.306-.509V3.948a2.789,2.789,0,1,1,5.578,0V19.681a.574.574,0,0,0,.3.509,6.485,6.485,0,0,1,1.225,10.531" transform="translate(-0.001)" fill="#fff"/>
    <path id="Caminho_7968" data-name="Caminho 7968" d="M63.923,286.462a5.309,5.309,0,0,1-5.318,5.323c-.2,0-.41-.012-.613-.029a5.4,5.4,0,0,1-4.676-4.7,5.336,5.336,0,0,1,2.751-5.283l.9-.486v-8.312a.58.58,0,0,1,.578-.578h2.115a.58.58,0,0,1,.578.578v8.312l.9.491a5.343,5.343,0,0,1,2.78,4.688" transform="translate(-50.972 -260.573)" fill="#fff"/>
  </g>
</svg>
