<svg id="Grupo_1292" data-name="Grupo 1292" xmlns="http://www.w3.org/2000/svg" xmlns:xlink="http://www.w3.org/1999/xlink" width="36.498" height="34.435" viewBox="0 0 36.498 34.435">
  <defs>
    <clipPath id="clip-path">
      <rect id="Retângulo_1409" data-name="Retângulo 1409" width="36.498" height="34.435" fill="#fff"/>
    </clipPath>
  </defs>
  <g id="Grupo_1291" data-name="Grupo 1291" clip-path="url(#clip-path)">
    <path id="Caminho_7947" data-name="Caminho 7947" d="M369.465,325.319a7.613,7.613,0,0,1-1.487-8.662,7.611,7.611,0,1,0,10.149,10.149,7.613,7.613,0,0,1-8.662-1.487" transform="translate(-341.629 -297.484)" fill="#fff"/>
    <path id="Caminho_7948" data-name="Caminho 7948" d="M111.4,121.586,121.586,111.4A7.612,7.612,0,1,0,111.4,121.586" transform="translate(-100.654 -100.654)" fill="#fff"/>
    <path id="Caminho_7949" data-name="Caminho 7949" d="M222.793,4.705a.648.648,0,0,0,.648-.648V.648a.648.648,0,1,0-1.3,0v3.41a.648.648,0,0,0,.648.648" transform="translate(-208.694)" fill="#fff"/>
    <path id="Caminho_7950" data-name="Caminho 7950" d="M340.511,68.581l2.411-2.411a.648.648,0,0,0-.916-.916l-2.411,2.411a.648.648,0,0,0,.916.916" transform="translate(-318.855 -61.125)" fill="#fff"/>
    <path id="Caminho_7951" data-name="Caminho 7951" d="M67.665,68.581a.648.648,0,0,0,.916-.916L66.17,65.254a.648.648,0,0,0-.916.916Z" transform="translate(-61.125 -61.125)" fill="#fff"/>
    <path id="Caminho_7952" data-name="Caminho 7952" d="M4.705,222.793a.648.648,0,0,0-.648-.648H.648a.648.648,0,1,0,0,1.3h3.41a.648.648,0,0,0,.648-.648" transform="translate(0 -208.694)" fill="#fff"/>
    <path id="Caminho_7953" data-name="Caminho 7953" d="M67.665,339.594l-2.411,2.411a.648.648,0,0,0,.916.916l2.411-2.411a.648.648,0,1,0-.916-.916" transform="translate(-61.125 -318.854)" fill="#fff"/>
    <path id="Caminho_7954" data-name="Caminho 7954" d="M94.1,63.869a.594.594,0,0,0-.84,0L63.869,93.26a.594.594,0,0,0,.84.84L94.1,64.709a.594.594,0,0,0,0-.84" transform="translate(-59.839 -59.839)" fill="#fff"/>
  </g>
</svg>
