<svg xmlns="http://www.w3.org/2000/svg" xmlns:xlink="http://www.w3.org/1999/xlink" width="31" height="31.213" viewBox="0 0 31 31.213">
  <defs>
    <clipPath id="clip-path">
      <rect id="Retângulo_1402" data-name="Retângulo 1402" width="31" height="31.213" transform="translate(0 0)" fill="#fff"/>
    </clipPath>
  </defs>
  <g id="Grupo_1288" data-name="Grupo 1288" transform="translate(0 0.001)">
    <g id="Grupo_1287" data-name="Grupo 1287" transform="translate(0 -0.001)" clip-path="url(#clip-path)">
      <path id="Caminho_7938" data-name="Caminho 7938" d="M28.271,14.143V6.686a6.709,6.709,0,0,0-1.939-4.715,6.526,6.526,0,0,0-9.35,0,6.709,6.709,0,0,0-1.939,4.715V24.524a5.248,5.248,0,0,1-1.5,3.651,5.145,5.145,0,0,1-3.615,1.511,5.087,5.087,0,0,1-3.6-1.511,5.2,5.2,0,0,1-1.51-3.651V11.7L8.048,7.484a.737.737,0,0,0,.194-.5V4.112H6.732v2.6L4.82,9.219V1.664H3.311V9.093L1.51,6.714V.545H0V6.98a.737.737,0,0,0,.194.5l3.117,4.085V24.524a6.662,6.662,0,0,0,1.953,4.715,6.509,6.509,0,0,0,9.336,0,6.662,6.662,0,0,0,1.953-4.715V6.686a5.189,5.189,0,0,1,1.5-3.652,5.064,5.064,0,0,1,7.217,0,5.189,5.189,0,0,1,1.5,3.652v7.485a3.489,3.489,0,0,0,0,6.771v3.582a.76.76,0,0,0,.762.755.749.749,0,0,0,.748-.755V20.957a3.491,3.491,0,0,0,0-6.813m.637,3.106a.965.965,0,1,1,.956-.965.963.963,0,0,1-.956.965" transform="translate(0 0.001)" fill="#fff" fill-rule="evenodd"/>
      <path id="Caminho_7939" data-name="Caminho 7939" d="M125.8,14.182h1.7a.3.3,0,0,0,.277-.308V11.356a.3.3,0,0,0-.277-.308h-1.7a.3.3,0,0,0-.277.308v2.518a.3.3,0,0,0,.277.308" transform="translate(-119.162 -10.488)" fill="#fff" fill-rule="evenodd"/>
    </g>
  </g>
</svg>
