<svg id="Grupo_1204" data-name="Grupo 1204" xmlns="http://www.w3.org/2000/svg" width="129.599" height="74.344" viewBox="0 0 129.599 74.344">
  <g id="Grupo_97" data-name="Grupo 97">
    <g id="Grupo_95" data-name="Grupo 95" transform="translate(0 40.833)">
      <g id="Grupo_94" data-name="Grupo 94">
        <g id="Grupo_72" data-name="Grupo 72" transform="translate(0 3.265)">
          <g id="Grupo_71" data-name="Grupo 71">
            <path id="Caminho_66" data-name="Caminho 66" d="M1182.676,583.2a1.2,1.2,0,0,0-1.2,1.2v8.771a1.2,1.2,0,0,0,2.392,0V584.4A1.2,1.2,0,0,0,1182.676,583.2Z" transform="translate(-1181.48 -580.011)" fill="#0f406d"/>
            <path id="Caminho_67" data-name="Caminho 67" d="M1182.676,569.578a1.191,1.191,0,1,0,.847.349A1.154,1.154,0,0,0,1182.676,569.578Z" transform="translate(-1181.48 -569.578)" fill="#ed7421"/>
          </g>
        </g>
        <g id="Grupo_74" data-name="Grupo 74" transform="translate(3.724 6.434)">
          <g id="Grupo_73" data-name="Grupo 73">
            <path id="Caminho_68" data-name="Caminho 68" d="M1202.965,583.115a5.572,5.572,0,0,0-5.582,5.581v4.424a1.157,1.157,0,0,0,1.157,1.157h0a1.235,1.235,0,0,0,1.235-1.235V588.7a3.107,3.107,0,0,1,1.124-2.432,3.044,3.044,0,0,1,1.762-.745,3.148,3.148,0,0,1,2.828,1.222,3.067,3.067,0,0,1,.664,1.943v4.231a1.362,1.362,0,0,0,1.362,1.362,1.03,1.03,0,0,0,1.03-1.03V588.7a5.572,5.572,0,0,0-5.581-5.581Z" transform="translate(-1197.384 -583.115)" fill="#0f406d"/>
          </g>
        </g>
        <g id="Grupo_76" data-name="Grupo 76" transform="translate(49.972 3.265)">
          <g id="Grupo_75" data-name="Grupo 75">
            <path id="Caminho_69" data-name="Caminho 69" d="M1396.106,583.2a1.2,1.2,0,0,0-1.2,1.2v8.771a1.2,1.2,0,0,0,2.392,0V584.4A1.2,1.2,0,0,0,1396.106,583.2Z" transform="translate(-1394.91 -580.011)" fill="#0f406d"/>
            <path id="Caminho_70" data-name="Caminho 70" d="M1396.106,569.578a1.191,1.191,0,1,0,.848.349A1.154,1.154,0,0,0,1396.106,569.578Z" transform="translate(-1394.91 -569.578)" fill="#ed7421"/>
          </g>
        </g>
        <g id="Grupo_78" data-name="Grupo 78" transform="translate(53.349 6.434)">
          <g id="Grupo_77" data-name="Grupo 77">
            <path id="Caminho_71" data-name="Caminho 71" d="M1414.914,583.115a5.572,5.572,0,0,0-5.581,5.581v4.424a1.157,1.157,0,0,0,1.157,1.157h0a1.235,1.235,0,0,0,1.235-1.235V588.7a3.106,3.106,0,0,1,1.124-2.432,3.043,3.043,0,0,1,1.762-.745,3.148,3.148,0,0,1,2.828,1.222,3.066,3.066,0,0,1,.664,1.943v4.231a1.362,1.362,0,0,0,1.362,1.362,1.03,1.03,0,0,0,1.03-1.03V588.7a5.572,5.572,0,0,0-5.581-5.581Z" transform="translate(-1409.333 -583.115)" fill="#0f406d"/>
          </g>
        </g>
        <g id="Grupo_80" data-name="Grupo 80" transform="translate(33.63 6.46)">
          <g id="Grupo_79" data-name="Grupo 79">
            <path id="Caminho_72" data-name="Caminho 72" d="M1330.092,587.5c-1.769-.44-2.562-.657-2.562-1.292,0-.57.531-.59,1.142-.59h3.227a1.2,1.2,0,0,0,0-2.392h-3.588q-3.189-.025-3.189,3.264a3.035,3.035,0,0,0,.741,2.062q.741.853,4.192,1.713,1.021.262,1.021.91-.062.76-1.632.822h-3.133a1.2,1.2,0,0,0-1.2,1.2h0a1.2,1.2,0,0,0,1.2,1.19h3.2a4.457,4.457,0,0,0,3.028-.91,3.394,3.394,0,0,0,1.034-2.691,2.721,2.721,0,0,0-.766-2.08A6.24,6.24,0,0,0,1330.092,587.5Z" transform="translate(-1325.115 -583.226)" fill="#0f406d"/>
          </g>
        </g>
        <g id="Grupo_82" data-name="Grupo 82" transform="translate(15.927 0.086)">
          <g id="Grupo_81" data-name="Grupo 81">
            <path id="Caminho_73" data-name="Caminho 73" d="M1251.993,564.9h1.836a1.255,1.255,0,0,0,1.255-1.255,1.137,1.137,0,0,0-1.137-1.137h-1.955a.1.1,0,0,1-.1-.1V557.3a1.3,1.3,0,0,0-1.3-1.3,1.089,1.089,0,0,0-1.089,1.089v11a5.607,5.607,0,0,0,4.183,5.418,1.128,1.128,0,0,0,1.4-1.093,1.315,1.315,0,0,0-.932-1.266,3.074,3.074,0,0,1-1.243-.726,3.352,3.352,0,0,1-1.015-2.45V565A.1.1,0,0,1,1251.993,564.9Z" transform="translate(-1249.503 -556)" fill="#0f406d"/>
          </g>
        </g>
        <g id="Grupo_84" data-name="Grupo 84" transform="translate(21.743 6.441)">
          <g id="Grupo_83" data-name="Grupo 83">
            <path id="Caminho_74" data-name="Caminho 74" d="M1277.88,583.56a5.581,5.581,0,1,0,7.2,7.392l.007-.016s.426-1.225-.662-1.583a1.272,1.272,0,0,0-1.539.636h0l0,.008a3.18,3.18,0,0,1-4.193,1.677,3.052,3.052,0,0,1-1.3-1.023.021.021,0,0,1,.009-.032l7.29-2.9a.79.79,0,0,0,.455-1.012l-.009-.024a5.573,5.573,0,0,0-7.251-3.119Zm4.011,2.693-5.07,2.02a.021.021,0,0,1-.029-.023,3.062,3.062,0,0,1,.151-.58,3.257,3.257,0,0,1,2.052-1.972,3.056,3.056,0,0,1,2.211.116,3.165,3.165,0,0,1,.69.4A.021.021,0,0,1,1281.891,586.253Z" transform="translate(-1274.346 -583.144)" fill="#0f406d"/>
          </g>
        </g>
        <g id="Grupo_86" data-name="Grupo 86" transform="translate(43.273 0.086)">
          <g id="Grupo_85" data-name="Grupo 85">
            <path id="Caminho_75" data-name="Caminho 75" d="M1368.79,564.9h1.836a1.255,1.255,0,0,0,1.255-1.255,1.137,1.137,0,0,0-1.137-1.137h-1.955a.1.1,0,0,1-.1-.1V557.3a1.3,1.3,0,0,0-1.3-1.3,1.089,1.089,0,0,0-1.089,1.089v11a5.607,5.607,0,0,0,4.183,5.418,1.128,1.128,0,0,0,1.4-1.093,1.315,1.315,0,0,0-.932-1.266,3.074,3.074,0,0,1-1.243-.726,3.352,3.352,0,0,1-1.015-2.45V565A.1.1,0,0,1,1368.79,564.9Z" transform="translate(-1366.3 -556)" fill="#0f406d"/>
          </g>
        </g>
        <g id="Grupo_88" data-name="Grupo 88" transform="translate(65.458 6.461)">
          <g id="Grupo_87" data-name="Grupo 87">
            <path id="Caminho_76" data-name="Caminho 76" d="M1466.63,583.227a5.572,5.572,0,1,0,3.949,1.632A5.38,5.38,0,0,0,1466.63,583.227Zm2.255,7.836a3.188,3.188,0,1,1,.934-2.255A3.073,3.073,0,0,1,1468.885,591.063Z" transform="translate(-1461.049 -583.227)" fill="#0f406d"/>
          </g>
        </g>
        <g id="Grupo_89" data-name="Grupo 89" transform="translate(118.436 6.461)">
          <path id="Caminho_77" data-name="Caminho 77" d="M1692.9,583.227a5.573,5.573,0,1,0,3.949,1.632A5.379,5.379,0,0,0,1692.9,583.227Zm2.255,7.836a3.189,3.189,0,1,1,.934-2.255A3.074,3.074,0,0,1,1695.156,591.063Z" transform="translate(-1687.319 -583.227)" fill="#ed7421"/>
        </g>
        <g id="Grupo_90" data-name="Grupo 90" transform="translate(77.661 6.656)">
          <path id="Caminho_78" data-name="Caminho 78" d="M1522.656,591.747a1.174,1.174,0,0,0-1.64.139l-.013.012a3.189,3.189,0,1,1,0-4.51l.013.013a1.232,1.232,0,0,0,1.718.02c.849-.77-.024-1.715-.024-1.715l-.013-.013a5.581,5.581,0,1,0,0,7.9l.013-.013S1523.643,592.467,1522.656,591.747Z" transform="translate(-1513.168 -584.063)" fill="#ed7421"/>
        </g>
        <g id="Grupo_91" data-name="Grupo 91" transform="translate(88.587 6.458)">
          <path id="Caminho_79" data-name="Caminho 79" d="M1569.9,583.214h-.061a1.233,1.233,0,0,0-1.232,1.233v4.269a3.3,3.3,0,0,1-.952,2.352,3.05,3.05,0,0,1-1.867.9,3.28,3.28,0,0,1-2.937-1.271,3.055,3.055,0,0,1-.623-1.9v-4.414a1.167,1.167,0,0,0-1.167-1.167,1.225,1.225,0,0,0-1.225,1.225V588.8a5.581,5.581,0,1,0,11.163,0v-4.482A1.1,1.1,0,0,0,1569.9,583.214Z" transform="translate(-1559.834 -583.214)" fill="#ed7421"/>
        </g>
        <g id="Grupo_92" data-name="Grupo 92" transform="translate(101.213 6.423)">
          <path id="Caminho_80" data-name="Caminho 80" d="M1623.3,584.709l-.012-.012a5.581,5.581,0,0,0-9.531,3.949v4.428a1.153,1.153,0,0,0,1.153,1.153h0a1.239,1.239,0,0,0,1.239-1.239v-4.323a3.186,3.186,0,0,1,.829-2.165,3.181,3.181,0,0,1,4.615-.11l.013.013a1.314,1.314,0,0,0,1.782.08A1.172,1.172,0,0,0,1623.3,584.709Z" transform="translate(-1613.757 -583.065)" fill="#ed7421"/>
        </g>
        <g id="Grupo_93" data-name="Grupo 93" transform="translate(112.162)">
          <path id="Caminho_81" data-name="Caminho 81" d="M1663.01,564.535h1.836a1.255,1.255,0,0,0,1.255-1.255,1.137,1.137,0,0,0-1.137-1.137h-1.955a.1.1,0,0,1-.1-.1v-5.108a1.3,1.3,0,0,0-1.3-1.3,1.089,1.089,0,0,0-1.089,1.089v11a5.607,5.607,0,0,0,4.183,5.418,1.128,1.128,0,0,0,1.4-1.093,1.315,1.315,0,0,0-.932-1.265,3.073,3.073,0,0,1-1.243-.727,3.352,3.352,0,0,1-1.015-2.45v-2.974A.1.1,0,0,1,1663.01,564.535Z" transform="translate(-1660.52 -555.634)" fill="#ed7421"/>
        </g>
      </g>
    </g>
    <g id="Grupo_96" data-name="Grupo 96" transform="translate(51.249)">
      <rect id="Retângulo_47" data-name="Retângulo 47" width="6.047" height="22.288" rx="3.024" transform="translate(8.961 7.975)" fill="#ed7421"/>
      <rect id="Retângulo_48" data-name="Retângulo 48" width="6.047" height="22.316" rx="3.024" transform="translate(0 7.975)" fill="#0f406d"/>
      <rect id="Retângulo_49" data-name="Retângulo 49" width="6.047" height="18.141" rx="3.024" transform="translate(27.102 7.975) rotate(90)" fill="#ed7421"/>
      <rect id="Retângulo_50" data-name="Retângulo 50" width="6.047" height="18.141" rx="3.024" transform="translate(27.102 24.216) rotate(90)" fill="#ed7421"/>
      <circle id="Elipse_11" data-name="Elipse 11" cx="3.024" cy="3.024" r="3.024" fill="#62c1c9"/>
    </g>
  </g>
  <g id="Grupo_103" data-name="Grupo 103" transform="translate(41.605 62.511)">
    <g id="Grupo_98" data-name="Grupo 98" transform="translate(2.367 4.359)">
      <path id="Caminho_82" data-name="Caminho 82" d="M1375.294,671.982a.718.718,0,0,0-1.038.093l-.008.008a1.942,1.942,0,0,1-2.856,0,2.222,2.222,0,0,1,0-3.02,1.942,1.942,0,0,1,2.856,0l.008.008a.751.751,0,0,0,1.088.014.842.842,0,0,0-.015-1.148l-.008-.008a3.408,3.408,0,0,0-5,0,3.9,3.9,0,0,0,0,5.289,3.408,3.408,0,0,0,5,0l.008-.008S1375.919,672.464,1375.294,671.982Z" transform="translate(-1369.285 -666.836)" fill="#62c1c9"/>
    </g>
    <g id="Grupo_99" data-name="Grupo 99" transform="translate(9.089 4.359)">
      <path id="Caminho_83" data-name="Caminho 83" d="M1401.53,666.836a3.315,3.315,0,0,0-2.5,1.093,3.9,3.9,0,0,0,0,5.289,3.408,3.408,0,0,0,5,0,3.9,3.9,0,0,0,0-5.289A3.316,3.316,0,0,0,1401.53,666.836Zm1.428,5.247a1.942,1.942,0,0,1-2.856,0,2.222,2.222,0,0,1,0-3.02,1.942,1.942,0,0,1,2.856,0,2.223,2.223,0,0,1,0,3.02Z" transform="translate(-1397.996 -666.836)" fill="#62c1c9"/>
    </g>
    <g id="Grupo_100" data-name="Grupo 100" transform="translate(16.717 4.359)">
      <path id="Caminho_84" data-name="Caminho 84" d="M1439.665,666.836a3.316,3.316,0,0,0-2.5,1.093.28.28,0,1,1-.552,0,3.408,3.408,0,0,0-5,0,3.709,3.709,0,0,0-1.034,2.645v2.932a.785.785,0,0,0,.762.806.775.775,0,0,0,.753-.8v-2.906a2.234,2.234,0,0,1,.514-1.46,1.914,1.914,0,0,1,1.418-.71,2.008,2.008,0,0,1,1.61.73,2.117,2.117,0,0,1,.5,1.4V673.5a.786.786,0,0,0,.763.807.774.774,0,0,0,.752-.8v-2.942a2.115,2.115,0,0,1,.5-1.4,2.008,2.008,0,0,1,1.61-.73,1.914,1.914,0,0,1,1.419.71,2.235,2.235,0,0,1,.514,1.46v2.869a.811.811,0,0,0,.788.833.749.749,0,0,0,.727-.769v-2.968a3.71,3.71,0,0,0-1.034-2.645A3.316,3.316,0,0,0,1439.665,666.836Z" transform="translate(-1430.576 -666.836)" fill="#62c1c9"/>
    </g>
    <g id="Grupo_101" data-name="Grupo 101" transform="translate(32.42)">
      <path id="Caminho_85" data-name="Caminho 85" d="M1501.177,652.579a3.268,3.268,0,0,0-2.02.659v-4.217a.759.759,0,1,0-1.515,0v7.3a3.709,3.709,0,0,0,1.034,2.645,3.408,3.408,0,0,0,5,0,3.9,3.9,0,0,0,0-5.289A3.316,3.316,0,0,0,1501.177,652.579Zm1.428,5.247a1.973,1.973,0,0,1-1.428.626,1.893,1.893,0,0,1-1.426-.624,2.207,2.207,0,0,1-.593-1.512,2.119,2.119,0,0,1,.59-1.508,1.973,1.973,0,0,1,1.43-.627,1.894,1.894,0,0,1,1.427.625,2.206,2.206,0,0,1,.592,1.513A2.117,2.117,0,0,1,1502.605,657.826Z" transform="translate(-1497.643 -648.22)" fill="#62c1c9"/>
    </g>
    <g id="Grupo_102" data-name="Grupo 102" transform="translate(40.042 4.359)">
      <path id="Caminho_86" data-name="Caminho 86" d="M1536.236,667.937l-.008-.008a3.408,3.408,0,0,0-5,0,3.709,3.709,0,0,0-1.033,2.645v2.965a.752.752,0,0,0,.73.772h0a.808.808,0,0,0,.784-.83v-2.894a2.2,2.2,0,0,1,.525-1.45,1.941,1.941,0,0,1,2.923-.073l.008.008a.8.8,0,0,0,1.129.053A.812.812,0,0,0,1536.236,667.937Z" transform="translate(-1530.193 -666.836)" fill="#62c1c9"/>
    </g>
    <ellipse id="Elipse_12" data-name="Elipse 12" cx="0.765" cy="0.809" rx="0.765" ry="0.809" transform="translate(30.427 10.216)" fill="#62c1c9"/>
    <ellipse id="Elipse_13" data-name="Elipse 13" cx="0.765" cy="0.809" rx="0.765" ry="0.809" transform="translate(0 10.216)" fill="#62c1c9"/>
  </g>
</svg>
