<svg xmlns="http://www.w3.org/2000/svg" width="20.27" height="20.276" viewBox="0 0 20.27 20.276">
  <g id="Grupo_28" data-name="Grupo 28" transform="translate(-3.731 -3.993)">
    <path id="Caminho_17" data-name="Caminho 17" d="M33.678,6a6.846,6.846,0,1,0,.865,1.06A6.846,6.846,0,0,0,33.678,6ZM32.66,14.663a5.388,5.388,0,1,1,.023-.023Z" transform="translate(-11.68 0)" fill="#eb834d"/>
    <path id="Caminho_18" data-name="Caminho 18" d="M4.253,43.309A1.8,1.8,0,0,0,6.8,45.857L11.554,41.1,9.006,38.556Z" transform="translate(0 -22.11)" fill="#eb834d"/>
    <path id="Caminho_19" data-name="Caminho 19" d="M23.49,36.853c-.174-.144-.344-.3-.5-.458s-.313-.333-.459-.507c-.04-.048-.079-.1-.118-.146s-.092-.108-.134-.166L21.2,36.651l1.528,1.528L23.8,37.107c-.056-.042-.108-.089-.165-.133Z" transform="translate(-11.175 -20.204)" fill="#eb834d"/>
  </g>
</svg>
