<svg id="Grupo_35" data-name="Grupo 35" xmlns="http://www.w3.org/2000/svg" width="113.551" height="40.48" viewBox="0 0 113.551 40.48">
  <path id="Caminho_32" data-name="Caminho 32" d="M1883.276,146.485a76.028,76.028,0,0,0-15.611,14.858l12.034,8.136s1.048-2.6,1.078-2.673c2.862,5.9,9,7.478,12.43,7.395h62.373c3.47.093,9.67-1.467,12.557-7.356.1.245,1.041,2.537,1.041,2.537l12.037-8.05a77.156,77.156,0,0,0-15.777-14.858,72.537,72.537,0,0,0-82.163.011" transform="translate(-1867.665 -133.725)" fill="#fff"/>
  <path id="Caminho_33" data-name="Caminho 33" d="M1906.762,153.415l1.043-2.223h-13.348l-1.042,2.223h5.169l-5.351,10.889h3.455l5.352-10.889Z" transform="translate(-1868.358 -134.199)" fill="#d7242f"/>
  <path id="Caminho_34" data-name="Caminho 34" d="M1958.522,162.34s-.672.309-.965.011-.031-.859-.031-.859l2.823-5.928h-2.878l-.44.789c-1.679-1.477-4.838-.712-6.794,1.333a6.4,6.4,0,0,0-1.856,3.792,8.533,8.533,0,0,1-1.544.811s-.672.306-.964,0-.032-.857-.032-.857l5.008-10.3h-2.874l-2.629,5.165c-1.68-1.473-4.838-.713-6.8,1.338a7.667,7.667,0,0,0-1.005,1.307l0-.011c-.021.034-.04.072-.059.11-.06.1-.122.21-.176.313a6.247,6.247,0,0,1-3.505,3.158c-4.108,1.23-4.578-.783-4.578-.783,4.6-1.7,6.33-3.715,6.175-5.256s-2.277-1.623-2.277-1.623a7.328,7.328,0,0,0-7.218,4.6,4.4,4.4,0,0,0-.156,2.149,7.686,7.686,0,0,1-2.194.86c-1.159.366-1.3-.18-1.439-.52s-.661-3.3-.661-3.3l4.882-3.195h-2.989l-3.67,2.277c-.826.339-.505-.527-.505-.527l2.993-6.068H1919.3l-4.86,9.847a21.046,21.046,0,0,1-2.494,1.311s-.671.306-.964,0-.032-.857-.032-.857l2.822-5.929h-2.876l-.441.791c-1.678-1.473-4.836-.713-6.795,1.338s-2.458,4.744-1.117,6.02c1.07,1.028,3,.84,4.726-.329,0,0,.438-.375.676.067s1.237,1.49,3.517.588a15.417,15.417,0,0,0,1.952-.931l-.6,1.213h2.877l1.438-2.915,1.253-.8s.38-.3.536.342a20.542,20.542,0,0,0,.861,2.771c.241.322.72,1.04,2.742.46a35.373,35.373,0,0,0,3.753-1.319c.676.931,1.978,1.565,4.107,1.565a10.013,10.013,0,0,0,6.325-2.288,2.474,2.474,0,0,0,.729,1.573c1.072,1.028,3,.84,4.729-.329,0,0,.438-.375.674.067s1.235,1.49,3.517.588a11.572,11.572,0,0,0,2.207-1.117,2.333,2.333,0,0,0,.557.847c1.072,1.025,3,.835,4.729-.332,0,0,.438-.375.673.066.247.457,1.237,1.488,3.517.589a7.522,7.522,0,0,0,2.937-1.715l-.574-1.017a8.894,8.894,0,0,1-1.88,1.035m-49.9-1.7c-.992,1.4-2.4,2.1-3.142,1.581s-.538-2.087.455-3.489,2.4-2.1,3.141-1.574.538,2.085-.453,3.482M1929,159.625a5.17,5.17,0,0,1,2.743-3.04s.595-.2.912.056c0,0,.449.436-.087,1.233a6.73,6.73,0,0,1-2.864,2.43s-1.127.489-.7-.679m14.514,1.013c-.991,1.4-2.4,2.1-3.14,1.581s-.538-2.087.454-3.489,2.4-2.1,3.143-1.574.535,2.085-.457,3.482m11.686.054c-.992,1.4-2.4,2.1-3.14,1.579s-.538-2.086.453-3.486,2.4-2.1,3.143-1.578.537,2.087-.455,3.485" transform="translate(-1868.591 -134.197)" fill="#d7242f"/>
  <path id="Caminho_35" data-name="Caminho 35" d="M1924.386,136.15c-34.8,0-53.258,24.689-53.258,24.689l7.569,5.113a36.787,36.787,0,0,1,3.011-5.567,8.356,8.356,0,0,0,.12,1.4c1.337,10.373,11.418,10.127,11.418,10.127h62.495s10.209.276,11.548-10.09a8.212,8.212,0,0,0,.111-1.353,36.794,36.794,0,0,1,2.959,5.419l7.558-5.058s-18.73-24.677-53.53-24.677m41.357,25.51a9.915,9.915,0,0,1-10.132,7.936h-62.394a9.756,9.756,0,0,1-10.007-8.008,6.316,6.316,0,0,1,.728-4.588c6.318-8.317,18.815-19.475,40.42-19.475,21.791,0,34.389,11.321,40.707,19.639.73.922,1,2.439.679,4.5" transform="translate(-1867.759 -133.791)" fill="#d7242f"/>
  <rect id="Retângulo_22" data-name="Retângulo 22" width="113.55" height="40.48" transform="translate(0.001)" fill="none"/>
</svg>
